<svg width="1200" height="700" viewBox="0 0 1200 700" fill="none" xmlns="http://www.w3.org/2000/svg">
<rect width="1200" height="700" rx="15" fill="url(#paint0_linear_3_114)"/>
<rect width="1200" height="700" rx="15" fill="url(#paint1_linear_3_114)" fill-opacity="0.5"/>
<path d="M138.55 141.65H146.7V147.1H138.55V141.65ZM133.6 124.1H140.3V170.4H133.6V124.1ZM105.4 128.55H112.05V157.3H105.4V128.55ZM105.4 153.6H109.4C116 153.6 123.15 153.15 130.6 151.65L131.3 157.1C123.65 158.7 116.2 159.1 109.4 159.1H105.4V153.6ZM164.896 127.2C172.196 127.2 177.646 131.95 177.646 138.6C177.646 145.3 172.196 150.05 164.896 150.05C157.646 150.05 152.096 145.3 152.096 138.6C152.096 131.95 157.646 127.2 164.896 127.2ZM164.896 132.9C161.346 132.9 158.646 135 158.646 138.6C158.646 142.25 161.346 144.35 164.896 144.35C168.446 144.35 171.146 142.25 171.146 138.6C171.146 135 168.446 132.9 164.896 132.9ZM181.996 124.1H188.646V170.55H181.996V124.1ZM150.996 161.15L150.196 155.8C158.346 155.8 169.696 155.7 179.446 154.25L179.946 159.05C169.896 161.05 158.996 161.15 150.996 161.15ZM208.72 128.5H230.87V159.2H208.72V128.5ZM224.32 133.7H215.27V153.95H224.32V133.7ZM236.92 124.15H243.62V170.45H236.92V124.15ZM242.12 141.6H250.32V147.1H242.12V141.6ZM274.266 125C284.466 125 291.016 128.45 291.016 134.05C291.016 139.65 284.466 143.05 274.266 143.05C264.066 143.05 257.516 139.65 257.516 134.05C257.516 128.45 264.066 125 274.266 125ZM274.266 130.15C267.916 130.15 264.366 131.4 264.366 134.05C264.366 136.65 267.916 137.95 274.266 137.95C280.566 137.95 284.166 136.65 284.166 134.05C284.166 131.4 280.566 130.15 274.266 130.15ZM258.166 154.15H290.166V169.95H258.166V154.15ZM283.666 159.4H264.716V164.7H283.666V159.4ZM253.316 145.7H295.166V150.95H253.316V145.7ZM310.641 147H352.541V152.3H310.641V147ZM328.791 150.35H335.491V160.1H328.791V150.35ZM315.791 126.1H347.241V143.3H315.791V126.1ZM340.691 131.3H322.291V138.1H340.691V131.3ZM315.491 164.35H347.941V169.65H315.491V164.35ZM315.491 156.2H322.091V166.1H315.491V156.2ZM366.937 129.3H372.387V132.2C372.387 141.05 368.237 149 359.287 151.95L355.987 146.7C363.687 144.15 366.937 138.1 366.937 132.2V129.3ZM368.287 129.3H373.687V132.2C373.687 137.6 376.787 142.9 384.237 145.15L381.087 150.35C372.287 147.7 368.287 140.45 368.287 132.2V129.3ZM357.737 127.25H382.737V132.55H357.737V127.25ZM386.437 124.15H393.087V151.6H386.437V124.15ZM391.237 134.8H399.237V140.25H391.237V134.8ZM377.987 152.45C387.587 152.45 393.637 155.8 393.637 161.45C393.637 167.1 387.587 170.45 377.987 170.45C368.337 170.45 362.287 167.1 362.287 161.45C362.287 155.8 368.337 152.45 377.987 152.45ZM377.987 157.65C372.087 157.65 368.887 158.85 368.887 161.45C368.887 164.05 372.087 165.35 377.987 165.35C383.887 165.35 387.037 164.05 387.037 161.45C387.037 158.85 383.887 157.65 377.987 157.65ZM423.583 124.8C434.133 124.8 440.333 127.6 440.333 132.7C440.333 137.8 434.133 140.6 423.583 140.6C412.983 140.6 406.833 137.8 406.833 132.7C406.833 127.6 412.983 124.8 423.583 124.8ZM423.583 129.65C416.883 129.65 413.733 130.65 413.733 132.7C413.733 134.85 416.883 135.75 423.583 135.75C430.283 135.75 433.433 134.85 433.433 132.7C433.433 130.65 430.283 129.65 423.583 129.65ZM402.633 142.75H444.483V148H402.633V142.75ZM407.433 150.6H439.433V162.5H414.033V166.6H407.483V157.9H432.883V155.55H407.433V150.6ZM407.483 165.15H440.633V170.15H407.483V165.15ZM491.857 124.15H498.557V170.45H491.857V124.15ZM478.207 128.95H484.807C484.807 143.1 480.007 154.7 463.557 162.65L460.107 157.35C473.407 150.95 478.207 142.55 478.207 130.15V128.95ZM462.557 128.95H481.357V134.2H462.557V128.95ZM505.953 148.95H547.903V154.25H505.953V148.95ZM511.103 125.05H542.803V137.6H517.753V142.6H511.153V132.9H536.253V130.1H511.103V125.05ZM511.153 140.6H543.703V145.65H511.153V140.6ZM523.603 143.05H530.253V151.85H523.603V143.05ZM510.603 156.85H543.103V170.3H536.453V162.1H510.603V156.85ZM581.649 124.15H588.249V170.45H581.649V124.15ZM586.749 142.2H594.949V147.75H586.749V142.2ZM551.749 131H578.699V136.3H551.749V131ZM565.299 138.9C572.049 138.9 577.049 143.5 577.049 149.95C577.049 156.4 572.049 161 565.299 161C558.549 161 553.549 156.4 553.549 149.95C553.549 143.5 558.549 138.9 565.299 138.9ZM565.299 144.3C562.149 144.3 559.899 146.4 559.899 149.95C559.899 153.5 562.149 155.6 565.299 155.6C568.449 155.6 570.699 153.5 570.699 149.95C570.699 146.4 568.449 144.3 565.299 144.3ZM561.949 124.9H568.599V133H561.949V124.9ZM602.245 128.05H631.595V133.4H602.245V128.05ZM597.995 159.5H639.845V164.9H597.995V159.5ZM612.795 143.6H619.445V162.15H612.795V143.6ZM629.195 128.05H635.845V132.5C635.845 138.3 635.845 144.8 633.995 154.7L627.345 153.95C629.195 144.75 629.195 138.05 629.195 132.5V128.05ZM646.091 176.7L644.591 172.7C648.491 171.25 650.641 168.6 650.591 165.65L650.341 160.45L652.941 164.75C652.191 165.5 651.191 165.85 650.091 165.85C647.691 165.85 645.491 164.25 645.491 161.5C645.491 158.85 647.641 157.15 650.291 157.15C653.641 157.15 655.541 159.85 655.541 164.35C655.541 170.25 652.191 174.7 646.091 176.7ZM133.6 204.1H140.3V250.55H133.6V204.1ZM138.8 221.25H147V226.7H138.8V221.25ZM105.8 233.9H109.7C117.5 233.9 123.65 233.65 130.45 232.45L131.1 237.95C124.1 239.2 117.75 239.4 109.7 239.4H105.8V233.9ZM105.8 208.4H127.4V213.75H112.4V236.55H105.8V208.4ZM149.996 229.15H191.946V234.45H149.996V229.15ZM155.246 244.35H187.896V249.65H155.246V244.35ZM155.246 237H161.896V246.65H155.246V237ZM155.146 205.2H186.846V218.05H161.796V222.85H155.196V213.35H180.296V210.25H155.146V205.2ZM155.196 221.3H187.746V226.3H155.196V221.3ZM217.72 207.7H223.12V214.45C223.12 225.9 219.12 236.65 210.37 240.95L206.37 235.6C214.17 231.95 217.72 223.05 217.72 214.45V207.7ZM219.07 207.7H224.37V214.45C224.37 222.75 227.67 231.2 235.07 234.8L231.07 240.1C222.72 235.85 219.07 225.55 219.07 214.45V207.7ZM236.92 204.15H243.62V250.45H236.92V204.15ZM242.12 221.95H250.32V227.5H242.12V221.95ZM283.116 204.2H289.766V231.65H283.116V204.2ZM287.866 215.05H295.916V220.55H287.866V215.05ZM259.616 233.65H289.766V249.95H259.616V233.65ZM283.266 238.85H266.166V244.7H283.266V238.85ZM254.966 224.65H258.866C267.966 224.65 273.566 224.5 279.966 223.3L280.566 228.55C274.066 229.8 268.216 230.05 258.866 230.05H254.966V224.65ZM254.916 206.45H276.066V220.55H261.566V227.6H254.966V215.6H269.516V211.75H254.916V206.45ZM299.363 222.1H341.263V227.35H299.363V222.1ZM304.513 214.4H336.313V219.6H304.513V214.4ZM304.513 205H335.913V210.3H311.113V218.9H304.513V205ZM304.113 229.95H336.113V242.2H310.713V246.2H304.163V237.5H329.563V234.95H304.113V229.95ZM304.163 245H337.313V250.1H304.163V245ZM347.259 208.75H367.209V214H347.259V208.75ZM353.209 222H359.759V237.7H353.209V222ZM364.559 208.75H371.109V212.5C371.109 217 371.109 222.6 369.859 230.3L363.359 229.7C364.559 222.3 364.559 216.95 364.559 212.5V208.75ZM375.059 204.15H381.709V250.45H375.059V204.15ZM379.759 222.75H387.909V228.25H379.759V222.75ZM345.509 241.1L344.909 235.75C353.059 235.75 363.859 235.6 372.959 234.45L373.309 239.3C363.959 240.9 353.559 241.1 345.509 241.1ZM423.333 232.95C433.333 232.95 439.733 236.25 439.733 241.75C439.733 247.15 433.333 250.45 423.333 250.45C413.333 250.45 406.933 247.15 406.933 241.75C406.933 236.25 413.333 232.95 423.333 232.95ZM423.333 237.95C417.083 237.95 413.533 239.25 413.533 241.75C413.533 244.2 417.083 245.45 423.333 245.45C429.583 245.45 433.133 244.2 433.133 241.75C433.133 239.25 429.583 237.95 423.333 237.95ZM407.433 206.2H436.733V211.45H407.433V206.2ZM402.733 224.8H444.433V230.1H402.733V224.8ZM418.183 216.75H424.783V226.15H418.183V216.75ZM432.883 206.2H439.483V210C439.483 213.65 439.483 217.6 438.233 222.4L431.633 221.7C432.883 216.95 432.883 213.6 432.883 210V206.2ZM458.079 233.4H464.879V250.45H458.079V233.4ZM474.079 233.4H480.879V250.45H474.079V233.4ZM448.629 229.9H490.579V235.25H448.629V229.9ZM469.479 205.7C479.379 205.7 486.229 209.75 486.229 216.1C486.229 222.35 479.379 226.4 469.479 226.4C459.629 226.4 452.779 222.35 452.779 216.1C452.779 209.75 459.629 205.7 469.479 205.7ZM469.479 211C463.429 211 459.579 212.8 459.579 216.1C459.579 219.35 463.429 221.15 469.479 221.15C475.579 221.15 479.379 219.35 479.379 216.1C479.379 212.8 475.579 211 469.479 211ZM494.575 211.1H516.725V216.4H494.575V211.1ZM505.725 218.45C511.625 218.45 515.875 223 515.875 229.5C515.875 235.95 511.625 240.5 505.725 240.5C499.875 240.5 495.575 235.95 495.575 229.5C495.575 223 499.875 218.45 505.725 218.45ZM505.725 224C503.225 224 501.475 226 501.475 229.5C501.475 233 503.225 234.95 505.725 234.95C508.225 234.95 510.025 233 510.025 229.5C510.025 226 508.225 224 505.725 224ZM528.075 204.15H534.425V250.45H528.075V204.15ZM522.525 222.95H530.175V228.3H522.525V222.95ZM518.375 205H524.575V248.5H518.375V205ZM502.475 205.4H509.025V214.45H502.475V205.4ZM540.671 239.7H582.571V245.1H540.671V239.7ZM558.221 229.8H564.871V241H558.221V229.8ZM545.071 207.1H551.671V214.2H571.421V207.1H578.021V231.2H545.071V207.1ZM551.671 219.4V225.9H571.421V219.4H551.671ZM604.867 219.7H612.517V225.1H604.867V219.7ZM594.967 208.15H600.067V215.95C600.067 226.45 597.167 236.7 589.767 241.25L585.767 236.25C592.567 232.05 594.967 223.8 594.967 215.95V208.15ZM596.417 208.15H601.417V215.65C601.417 223.2 603.367 230.9 609.667 235L606.067 240.2C598.717 235.65 596.417 225.65 596.417 215.65V208.15ZM620.067 204.15H626.417V250.45H620.067V204.15ZM610.667 204.85H616.867V248.35H610.667V204.85ZM641.863 227.65H648.463V240.65H641.863V227.65ZM658.663 227.65H665.313V240.65H658.663V227.65ZM632.663 239.7H674.563V245.1H632.663V239.7ZM653.563 206.4C663.513 206.4 670.863 211.3 670.863 218.85C670.863 226.4 663.513 231.25 653.563 231.25C643.563 231.25 636.263 226.4 636.263 218.85C636.263 211.3 643.563 206.4 653.563 206.4ZM653.563 211.6C647.113 211.6 642.813 214.25 642.813 218.85C642.813 223.4 647.113 226.1 653.563 226.1C660.013 226.1 664.313 223.4 664.313 218.85C664.313 214.25 660.013 211.6 653.563 211.6ZM683.459 233.4L682.359 214.95L682.159 208H689.509L689.309 214.95L688.259 233.4H683.459ZM685.809 246.7C683.209 246.7 681.259 244.65 681.259 241.9C681.259 239.15 683.209 237.15 685.809 237.15C688.459 237.15 690.409 239.15 690.409 241.9C690.409 244.65 688.459 246.7 685.809 246.7Z" fill="#EEEEEE"/>
<path d="M608.072 369.788C608.072 369.788 593.902 376.541 593.902 398.83C593.902 421.119 597.951 440.704 593.902 457.59C589.853 474.475 589.853 474.475 589.853 474.475C589.853 474.475 601.323 489.335 618.865 486.632C636.407 483.929 682.961 471.772 682.961 471.772C682.961 471.772 725.469 464.343 739.637 444.08C739.637 444.08 728.167 416.388 717.371 392.074C706.58 367.762 662.724 331.289 608.072 369.788Z" fill="#020D32"/>
<path d="M605.375 392.076C605.375 392.076 606.724 404.908 611.447 421.118C616.17 437.329 622.917 482.581 642.485 479.878C662.05 477.178 670.148 471.774 670.148 471.774L678.245 486.634C678.245 486.634 684.318 478.53 689.041 475.152L677.571 444.76C677.571 444.76 685.669 430.577 682.969 411.664C680.271 392.754 656.654 404.911 662.727 421.121C662.727 421.121 628.989 420.443 605.375 392.076Z" fill="#FFC7AE"/>
<path d="M678.245 486.634C678.245 486.634 668.124 501.494 668.798 525.808C669.473 550.122 673.506 569.035 673.506 569.035C673.506 569.035 654.63 562.281 637.088 569.035C619.546 575.789 605.376 572.413 605.376 572.413C605.376 572.413 602.002 586.598 608.074 603.483C608.074 603.483 682.966 608.211 704.557 603.483C726.148 598.755 718.05 576.466 718.05 576.466C718.05 576.466 726.82 583.22 770.677 594.027C814.533 604.833 826.677 611.063 852.315 605.584C877.955 600.105 877.955 600.105 877.955 600.105C877.955 600.105 871.883 581.194 870.534 566.335C869.185 551.475 878.632 519.732 869.185 513.653C859.738 507.575 850.294 515.679 813.184 503.522C776.076 491.365 730.194 453.541 689.038 475.155L678.245 486.634Z" fill="#FFC7C7"/>
<path d="M1060.13 503.666C1058.78 490.01 1054.05 425.172 1054.05 425.172C1054.05 425.172 1031.79 418.418 1025.72 428.55C1025.72 428.55 1015.59 471.099 1015.59 486.634C1015.59 502.169 1020.99 544.719 1020.99 544.719C1020.99 544.719 1006.82 546.744 984.559 531.887C962.294 517.027 949.475 509.598 949.475 509.598C949.475 509.598 910.311 492.966 870.936 515.41C877.283 524.307 869.283 552.558 870.534 566.332C871.883 581.192 877.955 600.103 877.955 600.103C877.955 600.103 906.293 600.778 949.475 600.103C992.657 599.428 1023.69 602.128 1051.36 593.349C1079.02 584.568 1061.47 517.322 1060.13 503.666Z" fill="#343941"/>
<path d="M1018.69 525.162C1017.22 511.854 1015.59 495.169 1015.59 486.634C1015.59 471.099 1025.72 428.55 1025.72 428.55C1009.52 427.874 994.004 434.628 994.004 434.628C994.004 434.628 992.655 452.188 997.378 475.152C1002.1 498.116 1018.69 525.162 1018.69 525.162Z" fill="#222831"/>
<path d="M994.005 434.626C994.005 434.626 987.258 421.119 984.98 415.8C982.704 410.481 982.704 399.083 992.57 396.551C1002.44 394.02 1029 379.582 1040.9 374.01C1052.79 368.437 1054.81 364.384 1058.86 368.184C1062.91 371.984 1052.79 389.713 1046.21 397.058C1039.63 404.402 1024.2 410.903 1025.71 428.55C1025.71 428.55 1007.84 426.606 994.005 434.626Z" fill="#EADEDC"/>
<path d="M1054.05 425.172C1054.05 425.172 1053.04 414.28 1068.73 402.883C1084.42 391.485 1095.8 383.635 1097.32 372.997C1098.84 362.359 1090.99 363.878 1085.18 365.399C1079.36 366.918 1059.11 373.25 1044.19 379.328C1029.26 385.407 1018.63 386.926 1019.39 395.792C1020.15 404.657 1025.72 428.549 1025.72 428.549C1025.72 428.549 1028.24 418.587 1054.05 425.172Z" fill="#F5EBE9"/>
<path d="M670.146 471.774L678.834 466.962L672.777 476.6L670.146 471.774Z" fill="#FFAE85"/>
<path d="M718.052 576.462C716.603 569.635 716.102 562.777 715.826 555.912C715.647 549.045 715.698 542.167 716.703 535.262C718.158 542.089 718.66 548.945 718.93 555.812C719.101 562.679 719.05 569.557 718.052 576.462Z" fill="#A0564A"/>
<path d="M637.086 569.033C654.628 562.279 673.503 569.033 673.503 569.033C673.503 569.033 671.815 561.076 670.439 548.881L670.147 548.77C670.147 548.77 659.857 547.757 647.207 549.783C634.556 551.808 617.857 552.823 617.857 552.823C617.857 552.823 610.305 560.707 610.538 573.102C616.196 573.524 625.953 573.319 637.086 569.033Z" fill="#C99797"/>
<path d="M617.858 552.823C617.858 552.823 618.111 545.225 614.821 539.147C611.531 533.068 602.171 527.496 602.171 527.496L597.11 533.068C597.11 533.068 601.159 537.121 600.145 539.147C599.134 541.172 593.82 536.615 593.82 536.615L586.998 545.634L598.373 567.261L605.372 572.411L610.537 573.102C610.537 573.102 610.535 560.254 617.858 552.823Z" fill="#FFAE85"/>
<path d="M480 535.262L508.302 484.691L538.284 450.752L614.631 525.741L586.99 558.142L580.41 602.719L576.101 610.063L480 535.262Z" fill="#4D5282"/>
<path d="M511.338 486.961L489.578 529.774L580.411 602.719L586.991 558.142L511.338 486.961Z" fill="#FFF9D9"/>
<path d="M542.459 452.02L511.337 486.96L586.99 558.142L616.592 523.443L542.459 452.02Z" fill="#FFF9D9"/>
<path d="M605.376 572.411L598.376 567.261C598.376 567.261 599.388 559.916 597.365 555.863C595.341 551.81 583.45 541.934 579.148 541.172C574.846 540.41 576.364 547.251 576.364 547.251L586.991 558.142L582.436 591.575C582.436 591.575 594.394 598.209 606.379 597.931C606.379 597.931 603.013 584.399 605.376 572.411Z" fill="#FFC7AE"/>
<defs>
<linearGradient id="paint0_linear_3_114" x1="600" y1="-31" x2="600" y2="915.5" gradientUnits="userSpaceOnUse">
<stop offset="0.0305211" stop-color="#3E4264"/>
<stop offset="0.189504" stop-color="#4D5282"/>
<stop offset="0.676599" stop-color="#00ADB5"/>
<stop offset="0.964121" stop-color="white"/>
</linearGradient>
<linearGradient id="paint1_linear_3_114" x1="600" y1="0" x2="600" y2="700" gradientUnits="userSpaceOnUse">
<stop stop-color="white" stop-opacity="0"/>
<stop offset="0.552083" stop-color="white" stop-opacity="0"/>
<stop offset="1" stop-color="white"/>
</linearGradient>
</defs>
</svg>
