<svg width="110" height="110" viewBox="0 0 110 110" fill="none" xmlns="http://www.w3.org/2000/svg">
<circle cx="55" cy="55" r="55" fill="#00ADB5"/>
<path d="M42.5 85C39.7 85 37.35 84.1 35.45 82.3C33.65 80.4 32.75 78.05 32.75 75.25V33.55C32.75 30.95 33.65 28.75 35.45 26.95C37.25 25.15 39.45 24.25 42.05 24.25H56.45C62.05 24.25 66.55 25.8 69.95 28.9C73.35 31.9 75.05 35.6 75.05 40C75.05 44.7 73.5 48.45 70.4 51.25C75.8 54.05 78.5 58.85 78.5 65.65C78.5 71.35 76.65 76 72.95 79.6C69.25 83.2 64.3 85 58.1 85H42.5ZM48.2 73H58.7C60.7 73 62.35 72.4 63.65 71.2C65.05 70 65.75 68.25 65.75 65.95C65.75 63.65 65.1 61.9 63.8 60.7C62.5 59.5 60.8 58.9 58.7 58.9H48.2C46.7 58.9 45.95 59.65 45.95 61.15V70.75C45.95 72.25 46.7 73 48.2 73ZM48.2 47.5H56.45C58.25 47.5 59.65 46.9 60.65 45.7C61.65 44.5 62.15 43.2 62.15 41.8C62.15 40.4 61.65 39.15 60.65 38.05C59.65 36.85 58.25 36.25 56.45 36.25H48.2C46.7 36.25 45.95 37 45.95 38.5V45.25C45.95 46.75 46.7 47.5 48.2 47.5Z" fill="white"/>
<path d="M82.5 79H43" stroke="white" stroke-width="12" stroke-linecap="round"/>
</svg>
