<svg width="221" height="70" viewBox="0 0 221 70" fill="none" xmlns="http://www.w3.org/2000/svg">
<circle cx="35" cy="35" r="35" fill="url(#paint0_linear_5_141)"/>
<g filter="url(#filter0_d_5_141)">
<path d="M27.5454 54.9091C25.6787 54.9091 24.1121 54.3091 22.8454 53.1091C21.6454 51.8424 21.0454 50.2757 21.0454 48.4091V20.6091C21.0454 18.8757 21.6454 17.4091 22.8454 16.2091C24.0454 15.0091 25.5121 14.4091 27.2454 14.4091H36.8454C40.5787 14.4091 43.5787 15.4424 45.8454 17.5091C48.1121 19.5091 49.2454 21.9757 49.2454 24.9091C49.2454 28.0424 48.2121 30.5424 46.1454 32.4091C49.7454 34.2757 51.5454 37.4757 51.5454 42.0091C51.5454 45.8091 50.3121 48.9091 47.8454 51.3091C45.3787 53.7091 42.0787 54.9091 37.9454 54.9091H27.5454ZM31.3454 46.9091H38.3454C39.6787 46.9091 40.7787 46.5091 41.6454 45.7091C42.5787 44.9091 43.0454 43.7424 43.0454 42.2091C43.0454 40.6757 42.6121 39.5091 41.7454 38.7091C40.8787 37.9091 39.7454 37.5091 38.3454 37.5091H31.3454C30.3454 37.5091 29.8454 38.0091 29.8454 39.0091V45.4091C29.8454 46.4091 30.3454 46.9091 31.3454 46.9091ZM31.3454 29.9091H36.8454C38.0454 29.9091 38.9787 29.5091 39.6454 28.7091C40.3121 27.9091 40.6454 27.0424 40.6454 26.1091C40.6454 25.1757 40.3121 24.3424 39.6454 23.6091C38.9787 22.8091 38.0454 22.4091 36.8454 22.4091H31.3454C30.3454 22.4091 29.8454 22.9091 29.8454 23.9091V28.4091C29.8454 29.4091 30.3454 29.9091 31.3454 29.9091Z" fill="white"/>
<path d="M51.4999 51.2727H26.3635" stroke="white" stroke-width="7" stroke-linecap="round"/>
</g>
<path d="M134.2 41C134.2 42.0133 133.88 42.84 133.24 43.48C132.653 44.12 131.907 44.44 131 44.44C129.987 44.44 129.187 44.12 128.6 43.48C128.013 42.84 127.72 42.0133 127.72 41V33.64C127.72 33.2133 127.56 32.8133 127.24 32.44C126.973 32.0133 126.547 31.8 125.96 31.8H124.92C124.387 31.8533 123.987 32.0667 123.72 32.44C123.453 32.76 123.32 33.16 123.32 33.64V40.84C123.32 41.8533 123.027 42.68 122.44 43.32C121.853 43.96 121.053 44.28 120.04 44.28C119.08 44.28 118.307 43.96 117.72 43.32C117.133 42.68 116.84 41.8533 116.84 40.84V19.8C116.84 18.7867 117.107 17.9867 117.64 17.4C118.227 16.76 119.027 16.44 120.04 16.44C121.107 16.44 121.853 16.68 122.28 17.16C122.76 17.64 123.053 18.1467 123.16 18.68C123.267 19.16 123.32 19.5333 123.32 19.8V23.88C123.32 24.36 123.4 24.8667 123.56 25.4C123.773 25.9333 124.227 26.2 124.92 26.2H126.04C126.68 26.2 127.107 25.9333 127.32 25.4C127.587 24.8667 127.72 24.36 127.72 23.88V19.8C127.72 19.5333 127.773 19.16 127.88 18.68C127.987 18.1467 128.28 17.64 128.76 17.16C129.24 16.68 129.987 16.44 131 16.44C131.96 16.44 132.733 16.76 133.32 17.4C133.907 17.9867 134.2 18.7867 134.2 19.8V41ZM106.12 25.88C105.48 25.88 105.24 26.2533 105.4 27C105.613 27.5333 106.227 28.1467 107.24 28.84C108.307 29.5333 109.427 30.2 110.6 30.84C111.827 31.4267 112.68 31.88 113.16 32.2C113.8 32.6267 114.2 33.32 114.36 34.28C114.573 35.24 114.387 36.0933 113.8 36.84C113.267 37.48 112.573 37.9067 111.72 38.12C110.92 38.28 110.067 38.0933 109.16 37.56L104.6 33.96C103.747 33.32 103.027 33 102.44 33C101.853 33 101.16 33.2933 100.36 33.88L95.64 37.72C94.84 38.2533 93.96 38.4933 93 38.44C92.0933 38.3867 91.32 38.0133 90.68 37.32C90.0933 36.5733 89.8 35.7733 89.8 34.92C89.8533 34.0133 90.2533 33.2933 91 32.76C91.7467 32.28 92.68 31.72 93.8 31.08C94.9733 30.3867 96.0667 29.6933 97.08 29C98.0933 28.2533 98.68 27.5867 98.84 27C98.8933 26.7333 98.8667 26.4933 98.76 26.28C98.6533 26.0133 98.44 25.88 98.12 25.88H93.72C92.6533 25.88 91.8 25.64 91.16 25.16C90.52 24.6267 90.2 23.8533 90.2 22.84C90.2 21.88 90.5467 21.1333 91.24 20.6C91.9333 20.0667 92.76 19.8 93.72 19.8H97.72C98.2533 19.8 98.5733 19.64 98.68 19.32C98.7867 18.9467 98.84 18.6533 98.84 18.44V16.44C98.84 15.5333 99.16 14.7867 99.8 14.2C100.493 13.56 101.293 13.24 102.2 13.24C103.16 13.24 103.96 13.56 104.6 14.2C105.293 14.7867 105.64 15.5333 105.64 16.44V18.36C105.64 18.68 105.693 19 105.8 19.32C105.96 19.64 106.307 19.8 106.84 19.8H110.76C111.773 19.8 112.573 20.0667 113.16 20.6C113.8 21.1333 114.12 21.88 114.12 22.84C114.12 23.8533 113.8 24.6267 113.16 25.16C112.573 25.64 111.773 25.88 110.76 25.88H106.12ZM132.2 62.2C132.2 63.16 131.88 63.9333 131.24 64.52C130.6 65.16 129.8 65.48 128.84 65.48C127.88 65.48 127.08 65.16 126.44 64.52C125.853 63.9333 125.56 63.16 125.56 62.2V56.2C125.56 55.1867 125.293 54.36 124.76 53.72C124.28 53.1333 123.533 52.84 122.52 52.84H114.44C113.427 52.84 112.6 52.5467 111.96 51.96C111.373 51.4267 111.08 50.6533 111.08 49.64C111.08 48.68 111.373 47.9333 111.96 47.4C112.6 46.8133 113.427 46.52 114.44 46.52H127.24C128.627 46.52 129.8 46.9467 130.76 47.8C131.72 48.6 132.2 49.8267 132.2 51.48V62.2ZM175.372 41.08C175.372 42.0933 175.052 42.92 174.412 43.56C173.825 44.2 173.052 44.52 172.092 44.52C171.079 44.52 170.225 44.2 169.532 43.56C168.892 42.92 168.572 42.0933 168.572 41.08V32.68C168.572 31.4533 167.985 30.84 166.812 30.84H164.572C163.559 30.84 162.759 30.5467 162.172 29.96C161.585 29.3733 161.292 28.6 161.292 27.64C161.292 26.84 161.532 26.12 162.012 25.48C162.545 24.84 163.399 24.52 164.572 24.52H166.812C167.559 24.52 168.039 24.36 168.252 24.04C168.465 23.6667 168.572 23.1333 168.572 22.44V19.88C168.572 19.6133 168.652 19.24 168.812 18.76C168.972 18.2267 169.292 17.72 169.772 17.24C170.305 16.76 171.079 16.52 172.092 16.52C173.105 16.52 173.905 16.84 174.492 17.48C175.079 18.0667 175.372 18.8667 175.372 19.88V41.08ZM160.972 35.48C160.972 36.3867 160.625 37.16 159.932 37.8C159.292 38.44 158.492 38.76 157.532 38.76C156.625 38.76 155.852 38.44 155.212 37.8C154.625 37.16 154.332 36.3867 154.332 35.48V28.76C154.332 27.7467 154.065 26.9467 153.532 26.36C152.999 25.7733 152.252 25.48 151.292 25.48H143.212C142.199 25.48 141.372 25.1867 140.732 24.6C140.092 24.0133 139.772 23.24 139.772 22.28C139.772 21.2667 140.092 20.4933 140.732 19.96C141.372 19.3733 142.199 19.08 143.212 19.08H155.932C157.319 19.08 158.492 19.5067 159.452 20.36C160.465 21.16 160.972 22.4133 160.972 24.12V35.48ZM198.144 8.76C199.69 8.76 200.917 9.18667 201.824 10.04C202.784 10.8933 203.264 12.1467 203.264 13.8V21.32C203.264 22.8133 202.757 24.0133 201.744 24.92C200.73 25.8267 199.53 26.28 198.144 26.28H192.464C191.45 26.28 190.81 26.52 190.544 27C190.33 27.4267 190.224 27.8533 190.224 28.28V28.84C190.224 29.3733 190.33 29.9333 190.544 30.52C190.81 31.1067 191.53 31.4 192.704 31.4H200.944C201.904 31.4 202.677 31.6933 203.264 32.28C203.904 32.8667 204.224 33.6667 204.224 34.68C204.224 35.64 203.904 36.4133 203.264 37C202.677 37.5333 201.904 37.8 200.944 37.8H188.464C187.077 37.8 185.877 37.3467 184.864 36.44C183.85 35.48 183.344 34.2533 183.344 32.76V25.16C183.344 23.6133 183.877 22.36 184.944 21.4C186.01 20.44 187.29 19.96 188.784 19.96H194.224C195.184 19.96 195.824 19.7467 196.144 19.32C196.464 18.8933 196.624 18.4933 196.624 18.12V17.4C196.624 16.8667 196.464 16.3867 196.144 15.96C195.877 15.48 195.157 15.24 193.984 15.24H186.944C185.984 15.24 185.184 14.9467 184.544 14.36C183.904 13.7733 183.584 12.9733 183.584 11.96C183.584 11.0533 183.904 10.3067 184.544 9.72C185.184 9.08 185.984 8.76 186.944 8.76H198.144ZM215.744 40.76C215.744 41.7733 215.424 42.6 214.784 43.24C214.197 43.88 213.424 44.2 212.464 44.2C211.504 44.2 210.677 43.88 209.984 43.24C209.29 42.6 208.944 41.7733 208.944 40.76V19.72C208.944 19.4533 209.024 19.08 209.184 18.6C209.397 18.0667 209.744 17.56 210.224 17.08C210.757 16.6 211.504 16.36 212.464 16.36C213.477 16.36 214.277 16.68 214.864 17.32C215.45 17.9067 215.744 18.7067 215.744 19.72V40.76Z" fill="#E96D71"/>
<defs>
<filter id="filter0_d_5_141" x="17.0454" y="14.4091" width="41.9546" height="48.5" filterUnits="userSpaceOnUse" color-interpolation-filters="sRGB">
<feFlood flood-opacity="0" result="BackgroundImageFix"/>
<feColorMatrix in="SourceAlpha" type="matrix" values="0 0 0 0 0 0 0 0 0 0 0 0 0 0 0 0 0 0 127 0" result="hardAlpha"/>
<feOffset dy="4"/>
<feGaussianBlur stdDeviation="2"/>
<feComposite in2="hardAlpha" operator="out"/>
<feColorMatrix type="matrix" values="0 0 0 0 0 0 0 0 0 0 0 0 0 0 0 0 0 0 0.1 0"/>
<feBlend mode="normal" in2="BackgroundImageFix" result="effect1_dropShadow_5_141"/>
<feBlend mode="normal" in="SourceGraphic" in2="effect1_dropShadow_5_141" result="shape"/>
</filter>
<linearGradient id="paint0_linear_5_141" x1="0" y1="0" x2="70" y2="70" gradientUnits="userSpaceOnUse">
<stop stop-color="#FAD7A1"/>
<stop offset="1" stop-color="#E96D71"/>
</linearGradient>
</defs>
</svg>
