<svg width="62" height="91" viewBox="0 0 62 91" fill="none" xmlns="http://www.w3.org/2000/svg">
<path d="M33.13 90.0211L28.323 80.9831L32.19 69.8191V62.9851L20.354 69.8191V76.6521L25.442 85.4661C25.528 85.6151 25.651 85.7121 25.788 85.7731L25.785 85.7771L33.13 90.0211Z" fill="#FD6585"/>
<path opacity="0.2" d="M33.13 90.0211L28.323 80.9831L32.19 69.8191V62.9851L20.354 69.8191V76.6521L25.442 85.4661C25.528 85.6151 25.651 85.7121 25.788 85.7731L25.785 85.7771L33.13 90.0211Z" fill="black"/>
<path d="M61.394 8.663C61.394 6.4 59.806 3.649 57.846 2.517L54.957 0.849C52.998 -0.283 49.82 -0.283 47.86 0.849L3.54901 26.477C1.58901 27.609 0 30.36 0 32.623V81.377C0 83.64 1.58901 86.392 3.54901 87.523L6.438 89.191C8.398 90.322 11.575 90.322 13.535 89.191L27.786 80.957L32.864 89.753C33.188 90.315 34.024 90.236 34.236 89.622L39.603 74.13L57.846 63.562C59.806 62.431 61.394 59.679 61.394 57.416V8.663Z" fill="#FD6585"/>
<path opacity="0.2" d="M0 81.377C0 83.64 1.58901 86.392 3.54901 87.523L6.438 89.191C8.209 90.214 10.966 90.303 12.929 89.477C11.259 90.109 9.987 89.166 9.987 87.142L9.98601 38.388C9.98601 37.257 10.383 36.003 11.025 34.891L1.039 29.126C0.397001 30.238 0 31.491 0 32.623V81.377Z" fill="black"/>
<path opacity="0.5" d="M61.2778 7.65412C60.8638 6.14712 59.4908 5.66712 57.8518 6.61112L13.5338 32.2451C12.5578 32.8081 11.6638 33.7681 11.0338 34.8941L1.05176 29.1331C1.69776 28.0071 2.57476 27.0471 3.55176 26.4841L47.8538 0.850115C49.8238 -0.275885 53.0018 -0.275885 54.9558 0.850115L57.8528 2.52211C59.5238 3.48311 60.9308 5.63512 61.2778 7.65412Z" fill="white"/>
<path d="M20.758 50.4809C20.745 47.5359 21.452 44.4429 22.62 41.7079L22.615 41.7019L22.64 41.6429C24.006 38.4719 26.009 35.7969 28.239 34.4859C32.064 32.2289 35.255 36.8089 35.758 42.2049C36.212 36.2459 39.345 27.9489 43.171 25.7089C45.4 24.3989 47.417 24.7119 48.803 26.2639L48.828 26.2939L48.823 26.3059C50.009 27.6569 50.739 29.9059 50.752 32.8509C50.792 41.9779 45.303 50.2579 40.711 58.9599L35.755 67.3729L30.976 64.6819C26.331 61.4099 20.798 59.6079 20.758 50.4809Z" fill="#FAFAFA"/>
</svg>
